<svg width="78" height="69" viewBox="0 0 78 69" fill="none" xmlns="http://www.w3.org/2000/svg">
<rect width="78" height="69" fill="white" fill-opacity="0.01"/>
<path fill-rule="evenodd" clip-rule="evenodd" d="M40 58.8429C53.8071 58.8429 65 48.1329 65 34.9215C65 21.71 53.8071 11 40 11C26.1929 11 15 21.71 15 34.9215C15 38.4798 15.9171 42.2196 17.7512 46.1407L18.1582 46.9837C19.5365 49.7521 19.6099 52.9892 18.3585 55.817C17.198 58.4394 17.0005 60.0691 17.766 60.7061C18.6043 61.4036 21.0179 60.8596 25.0067 59.074L26.083 58.58C28.1445 57.612 30.4619 57.3476 32.6801 57.8181L33.2324 57.9511C35.4369 58.5456 37.6928 58.8429 40 58.8429Z" fill="#0584FE"/>
<path d="M38.6291 34.868H30.8871V32.369H38.6291V24.529H41.3731V32.369H49.1151V34.868H41.3731V42.757H38.6291V34.868Z" fill="white"/>
</svg>
