<svg width="19" height="24" viewBox="0 0 19 24" fill="none" xmlns="http://www.w3.org/2000/svg">
<path fill-rule="evenodd" clip-rule="evenodd" d="M4.99935 22H12.9993C13.5516 22 13.9993 22.4477 13.9993 23C13.9993 23.5128 13.6133 23.9355 13.116 23.9933L12.9993 24H4.99935C4.44706 24 3.99935 23.5523 3.99935 23C3.99935 22.4872 4.38539 22.0645 4.88273 22.0067L4.99935 22H12.9993H4.99935ZM17.1005 10.6035C17.6525 10.6197 18.0869 11.0804 18.0707 11.6324C18.0287 13.0647 17.5706 14.5824 16.7935 15.9284C14.3082 20.233 8.8039 21.7079 4.49927 19.2226C1.74573 17.6329 0.0713574 14.7458 0.000264759 11.6258C-0.0123168 11.0737 0.425083 10.6159 0.977224 10.6033C1.52937 10.5907 1.98716 11.0281 1.99975 11.5803C2.05509 14.0091 3.35676 16.2536 5.49927 17.4906C8.84731 19.4236 13.1284 18.2764 15.0614 14.9284C15.6783 13.86 16.0396 12.6628 16.0716 11.5737C16.0878 11.0217 16.5484 10.5873 17.1005 10.6035ZM8.99935 0C11.7608 0 13.9993 2.23858 13.9993 5V11.5C13.9993 14.2614 11.7608 16.5 8.99935 16.5C6.23792 16.5 3.99935 14.2614 3.99935 11.5V5C3.99935 2.23858 6.23792 0 8.99935 0Z" fill="#0584FE"/>
</svg>
