
<svg width="51" height="51" viewBox="0 0 51 51" fill="none" xmlns="http://www.w3.org/2000/svg">
<path fill-rule="evenodd" clip-rule="evenodd" d="M25.5 51C39.5833 51 51 39.5833 51 25.5C51 11.4167 39.5833 0 25.5 0C11.4167 0 0 11.4167 0 25.5C0 39.5833 11.4167 51 25.5 51Z" fill="#FE294D"/>
<path fill-rule="evenodd" clip-rule="evenodd" d="M25.5935 23.7756H25.4065C22.2376 23.8266 20.158 24.4378 19.1678 25.6094L19.1469 26.2097C19.1068 27.0532 19.028 27.641 18.9104 27.973C18.6657 28.6642 18.3312 28.9875 16.9575 29.3938C15.1505 29.9283 13.6033 30 12.7759 30C12.0075 30 11.4651 29.2241 11.3064 28.7985L11.232 28.5471L11.158 28.2472C10.9617 27.3638 10.7217 25.4362 11.9828 23.7722C12.5274 23.0535 13.4098 22.34 14.6309 21.6886C17.3371 20.3831 20.6146 19.6617 24.4633 19.5243L25.1546 19.5066L25.1546 19.5L25.4998 19.503L25.8454 19.5L25.8454 19.5066L26.5367 19.5243C30.3854 19.6617 33.6629 20.3831 36.3691 21.6886C37.5902 22.34 38.4726 23.0535 39.0172 23.7722C40.3812 25.572 39.9892 27.6801 39.7956 28.4419L39.7233 28.707C39.617 29.1001 39.0516 30 38.2241 30L37.8268 29.9945C36.9493 29.9701 35.5914 29.852 34.0425 29.3938C32.6688 28.9875 32.3343 28.6642 32.0896 27.973C31.9459 27.5672 31.8601 26.7793 31.8322 25.6094C30.842 24.4378 28.7624 23.8266 25.5935 23.7756Z" fill="white"/>
</svg>